<?xml version="1.0"?>
<svg width="640" height="480" xmlns="http://www.w3.org/2000/svg" xmlns:svg="http://www.w3.org/2000/svg">
 <!-- Created with SVG-edit - https://github.com/SVG-Edit/svgedit-->
 <g class="layer">
  <title>Layer 1</title>
  <polygon fill="#FF0000" id="svg_1"/>
  <polygon fill="#bfff00" id="svg_4"/>
  <polygon fill="#bfff00" id="svg_5" points="341.5,170.5 341.5,170.5 341.5,170.5 341.5,170.5 341.5,170.5 341.5,170.5 341.5,170.5 341.5,170.5 341.5,170.5 341.5,170.5 341.5,170.5 341.5,170.5 " stroke-width="5"/>
  <polygon fill="#bfff00" id="svg_6"/>
  <polygon fill="#bfff00" id="svg_9"/>
  <polygon fill="#bfff00" id="svg_10" points="378.5,355.8333333333333 378.65674273394467,356.28426213483334 379.1340376775301,356.2939886704167 378.75361507101206,356.58240453183333 378.89185683486164,357.0393446629166 378.5,356.76666666666665 378.10814316513836,357.0393446629166 378.24638492898794,356.58240453183333 377.8659623224699,356.2939886704167 378.34325726605533,356.28426213483334 378.5,355.8333333333333 378.65674273394467,356.28426213483334 " stroke-width="5"/>
  <polygon fill="#bfff00" id="svg_12" points="364.5,341.8333333333333 364.65674273394467,342.28426213483334 365.1340376775301,342.2939886704167 364.75361507101206,342.58240453183333 364.89185683486164,343.0393446629166 364.5,342.76666666666665 364.10814316513836,343.0393446629166 364.24638492898794,342.58240453183333 363.8659623224699,342.2939886704167 364.34325726605533,342.28426213483334 364.5,341.8333333333333 364.65674273394467,342.28426213483334 " stroke-width="5"/>
  <polygon fill="#bfff00" id="svg_18" points="289.5,300.5 289.5,300.5 289.5,300.5 289.5,300.5 289.5,300.5 289.5,300.5 289.5,300.5 289.5,300.5 289.5,300.5 289.5,300.5 289.5,300.5 289.5,300.5 " stroke-width="5"/>
  <polygon fill="#bfff00" id="svg_20" points="134.5,102.83333333333333 134.65674273394467,103.28426213483334 135.1340376775301,103.2939886704167 134.75361507101204,103.58240453183332 134.89185683486164,104.03934466291663 134.5,103.76666666666667 134.10814316513836,104.03934466291663 134.24638492898796,103.58240453183332 133.8659623224699,103.2939886704167 134.34325726605533,103.28426213483334 134.5,102.83333333333333 134.65674273394467,103.28426213483334 " stroke-width="5"/>
  <polygon fill="#bfff00" id="svg_23" points="184.5,103.5 184.5,103.5 184.5,103.5 184.5,103.5 184.5,103.5 184.5,103.5 184.5,103.5 184.5,103.5 184.5,103.5 184.5,103.5 184.5,103.5 184.5,103.5 " stroke-width="5"/>
  <polygon fill="#bfff00" id="svg_24"/>
  <polygon cx="243.5" cy="192.5" fill="#bfff00" id="svg_2" orient="point" point="5" points="321.0000305175781,65.45616149902344 366.37017822265625,195.98037719726562 504.5262451171875,198.7957763671875 394.4105224609375,282.2796325683594 434.4255065917969,414.5438537597656 321.0000305175781,335.615478515625 207.57455444335938,414.5438537597656 247.5895233154297,282.2796325683594 137.4737548828125,198.7957763671875 275.62982177734375,195.98037719726562 321.0000305175781,65.45616149902344 366.37017822265625,195.98037719726562 " r="192.970925" r2="77.18837" shape="star" stroke="#ff0000" stroke-width="5" strokeWidth="5" strokecolor="none"/>
  <polygon cx="309.5" cy="223.5" fill="#bfff00" id="svg_7" orient="point" point="5" points="309.5,223.5 309.5,223.5 309.5,223.5 309.5,223.5 309.5,223.5 309.5,223.5 309.5,223.5 309.5,223.5 309.5,223.5 309.5,223.5 309.5,223.5 309.5,223.5 " r="0" r2="0" shape="star" stroke-width="5" strokeWidth="5" strokecolor="none"/>
  <polygon cx="258.5" cy="144.5" fill="#bfff00" id="svg_8" orient="point" point="5" points="258.5,144.5 258.5,144.5 258.5,144.5 258.5,144.5 258.5,144.5 258.5,144.5 258.5,144.5 258.5,144.5 258.5,144.5 258.5,144.5 258.5,144.5 258.5,144.5 " r="0" r2="0" shape="star" stroke-width="5" strokeWidth="5" strokecolor="none"/>
  <polygon cx="177.5" cy="40.5" fill="#bfff00" id="svg_11" orient="point" point="5" r="0" r2="0" shape="star" strokeWidth="5" strokecolor="none"/>
  <polygon cx="245.5" cy="172.5" fill="#bfff00" id="svg_13" orient="point" point="5" points="245.5,168.5 246.44045640366795,171.20557280900007 249.30422606518061,171.2639320225002 247.02169042607224,172.99442719099991 247.85114100916988,175.7360679774998 245.5,174.1 243.14885899083012,175.7360679774998 243.97830957392776,172.99442719099991 241.69577393481939,171.2639320225002 244.55954359633205,171.20557280900007 245.5,168.5 246.44045640366795,171.20557280900007 " r="4" r2="1.6" shape="star" stroke-width="5" strokeWidth="5" strokecolor="none"/>
  <polygon cx="245.5" cy="166.5" fill="#bfff00" id="svg_14" orient="point" point="5" r="0" r2="0" shape="star" strokeWidth="5" strokecolor="none"/>
  <polygon cx="245.5" cy="166.5" fill="#bfff00" id="svg_15" orient="point" point="5" r="0" r2="0" shape="star" strokeWidth="5" strokecolor="none"/>
  <polygon cx="242.5" cy="138.5" fill="#bfff00" id="svg_16" orient="point" point="5" points="242.5,138.5 242.5,138.5 242.5,138.5 242.5,138.5 242.5,138.5 242.5,138.5 242.5,138.5 242.5,138.5 242.5,138.5 242.5,138.5 242.5,138.5 242.5,138.5 " r="0" r2="0" shape="star" stroke-width="5" strokeWidth="5" strokecolor="none"/>
  <polygon cx="312.5" cy="71.5" fill="#bfff00" id="svg_17" orient="point" point="5" r="0" r2="0" shape="star" strokeWidth="5" strokecolor="none"/>
  <text fill="#000000" font-family="serif" font-size="24" id="svg_19" stroke="#ff0000" stroke-dasharray="null" stroke-linecap="null" stroke-linejoin="null" stroke-width="0" text-anchor="middle" transform="matrix(1.88304 0 0 1.96875 -302.193 -310.641)" x="275.270186" xml:space="preserve" y="279.055556">A</text>
  <text fill="#000000" font-family="serif" font-size="24" id="svg_21" stroke="#ff0000" stroke-dasharray="null" stroke-linecap="null" stroke-linejoin="null" stroke-width="0" style="cursor: move;" text-anchor="middle" transform="matrix(1.88304 0 0 1.96875 -308.83 -258.518)" x="304.478247" xml:space="preserve" y="306.992063">B</text>
  <text fill="#000000" font-family="serif" font-size="24" id="svg_22" stroke="#ff0000" stroke-dasharray="null" stroke-linecap="null" stroke-linejoin="null" stroke-width="0" text-anchor="middle" transform="matrix(1.88304 0 0 1.96875 -308.83 -258.518)" x="366.080764" xml:space="preserve" y="308.007937">S</text>
  <text fill="#000000" font-family="serif" font-size="24" id="svg_25" stroke="#ff0000" stroke-dasharray="null" stroke-linecap="null" stroke-linejoin="null" stroke-width="0" style="cursor: move;" text-anchor="middle" transform="matrix(1.88304 0 0 1.96875 -308.83 -258.518)" x="387.323011" xml:space="preserve" y="255.18254">F</text>
  <path d="m317.379307,197.311483c0,-1.556993 0,-3.113985 0,-4.670984c5.778692,-0.030253 11.557383,-0.0605 17.336077,-0.090751c0,-1.469269 0,-2.938538 0,-4.407809c-4.563939,-0.058774 -9.127875,-0.117541 -13.691813,-0.176315c5.221078,-9.168252 10.442154,-18.336509 15.663241,-27.504761c2.250552,-0.383062 4.275971,2.022006 4.431553,4.936749c0.233366,12.190939 0.10391,24.390114 0.140202,36.584854c-7.959748,0 -15.919506,0 -23.879264,0c0.000003,-1.556986 0,-3.113985 0.000003,-4.670984l0,0.000002zm-0.032515,-19.439752c-0.011645,-3.041392 -0.023293,-6.082783 -0.03494,-9.124175c-2.480425,4.162635 -4.677782,8.64568 -7.436474,12.500916c-2.443773,2.116022 -4.684299,-1.330224 -6.534041,-3.030549c-2.585915,-2.681622 -5.240075,-5.27489 -7.661884,-8.208468c-1.480643,-2.906443 0.98788,-7.038772 3.50654,-5.940998c2.256112,1.454991 4.059128,3.937068 6.10006,5.853688c1.213717,1.743322 2.668002,2.854002 3.513206,-0.024038c1.797128,-2.869986 3.237201,-6.208314 5.451096,-8.577029c2.229969,-1.627348 4.930914,-0.649426 7.364682,-0.947246c3.71453,0.014632 7.431237,-0.043212 11.144138,0.094695c-5.05353,8.893289 -10.160206,17.737238 -15.318312,26.527375c-0.08712,-3.038853 -0.070551,-6.083193 -0.094069,-9.124175l-0.000003,0.000002zm8.397002,-20.688717c-3.028313,-0.650573 -5.350192,-4.376341 -5.328992,-8.358779c-1.064375,-0.058769 -2.128758,-0.117541 -3.193134,-0.176312c0.910374,-1.498657 1.820743,-2.997314 2.731115,-4.495971c4.538615,0 9.077238,0 13.615853,0c-0.012791,3.725365 0.358978,8.057051 -2.086377,10.729045c-1.45578,1.945709 -3.715663,2.679666 -5.738467,2.302017l0.000002,0zm-7.562243,-17.919716c-0.590924,-1.367679 -2.692317,-3.853594 -0.155715,-3.161515c5.180581,-0.09694 10.361867,-0.048194 15.542801,-0.060208c0,2.056978 0,4.113958 0,6.17094c-4.614275,0 -9.228551,0 -13.842826,0c-0.514752,-0.983072 -1.029504,-1.966145 -1.544258,-2.949215l-0.000002,-0.000002z" fill="#ff7f00" id="svg_28" stroke="#ff0000" stroke-dasharray="null" stroke-linecap="null" stroke-linejoin="null" stroke-width="2"/>
 </g>
</svg>